<?xml version="1.0" encoding="UTF-8" standalone="no"?>
<!-- Created with Inkscape (http://www.inkscape.org/) -->

<svg
   version="1.1"
   id="svg1"
   width="655.35999"
   height="625.91998"
   viewBox="0 0 655.35999 625.91998"
   sodipodi:docname="hybyrd-solutions-logo-transparent.svg"
   xml:space="preserve"
   inkscape:version="1.3.2 (091e20e, 2023-11-25)"
   inkscape:export-filename="../../final/transparent/hybyrd-solutions-logo-transparent.png"
   inkscape:export-xdpi="96"
   inkscape:export-ydpi="96"
   xmlns:inkscape="http://www.inkscape.org/namespaces/inkscape"
   xmlns:sodipodi="http://sodipodi.sourceforge.net/DTD/sodipodi-0.dtd"
   xmlns:xlink="http://www.w3.org/1999/xlink"
   xmlns="http://www.w3.org/2000/svg"
   xmlns:svg="http://www.w3.org/2000/svg"><defs
     id="defs1"><color-profile
       name="ACES-CG-Linear-Academy-Color-Encoding-System-AP1"
       xlink:href="file:///System/Library/ColorSync/Profiles/ACESCG%20Linear.icc"
       id="color-profile1" /><linearGradient
       id="linearGradient10"
       inkscape:collect="always"><stop
         style="stop-color:#000000;stop-opacity:0.98820059;"
         offset="0"
         id="stop11" /><stop
         style="stop-color:#000000;stop-opacity:0;"
         offset="1"
         id="stop13" /></linearGradient><linearGradient
       id="swatch10"
       inkscape:swatch="solid"><stop
         style="stop-color:#000000;stop-opacity:0.98820101;"
         offset="0"
         id="stop10" /></linearGradient><linearGradient
       id="linearGradient15"
       inkscape:collect="always"><stop
         style="stop-color:#000000;stop-opacity:1;"
         offset="0"
         id="stop15" /><stop
         style="stop-color:#000000;stop-opacity:0;"
         offset="1"
         id="stop16" /></linearGradient><linearGradient
       id="swatch11"
       inkscape:swatch="solid"><stop
         style="stop-color:#000000;stop-opacity:1;"
         offset="0"
         id="stop12" /></linearGradient><rect
       x="202.85129"
       y="411.82831"
       width="329.37454"
       height="151.62083"
       id="rect1" /><rect
       x="202.85129"
       y="411.82831"
       width="329.37454"
       height="151.62083"
       id="rect1-5" /><radialGradient
       inkscape:collect="always"
       xlink:href="#linearGradient15"
       id="radialGradient16"
       cx="367.7558"
       cy="420.63583"
       fx="367.7558"
       fy="420.63583"
       r="113.3913"
       gradientTransform="matrix(1,0,0,0.06158158,0,394.7324)"
       gradientUnits="userSpaceOnUse" /><linearGradient
       inkscape:collect="always"
       xlink:href="#linearGradient10"
       id="linearGradient13"
       x1="251.68063"
       y1="420.796"
       x2="483.58873"
       y2="420.796"
       gradientUnits="userSpaceOnUse" /></defs><sodipodi:namedview
     id="namedview1"
     pagecolor="#000000"
     bordercolor="#000000"
     borderopacity="0.25"
     inkscape:showpageshadow="2"
     inkscape:pageopacity="0.0"
     inkscape:pagecheckerboard="true"
     inkscape:deskcolor="#d1d1d1"
     showguides="true"
     inkscape:zoom="2.5079516"
     inkscape:cx="322.37464"
     inkscape:cy="171.05593"
     inkscape:window-width="1456"
     inkscape:window-height="789"
     inkscape:window-x="118"
     inkscape:window-y="78"
     inkscape:window-maximized="0"
     inkscape:current-layer="g1"
     inkscape:export-bgcolor="#00000000"><sodipodi:guide
       position="359.76302,188.33989"
       orientation="0,-1"
       id="guide1"
       inkscape:locked="false" /><sodipodi:guide
       position="382.31869,86.839349"
       orientation="0,-1"
       id="guide2"
       inkscape:locked="false" /><sodipodi:guide
       position="188.33989,275.17923"
       orientation="1,0"
       id="guide3"
       inkscape:locked="false" /><sodipodi:guide
       position="466.90248,263.33751"
       orientation="1,0"
       id="guide4"
       inkscape:locked="false" /><sodipodi:guide
       position="373.29642,164.65643"
       orientation="0,-1"
       id="guide5"
       inkscape:locked="false" /><sodipodi:guide
       position="356.94356,53.569728"
       orientation="0,-1"
       id="guide6"
       inkscape:locked="false" /><sodipodi:guide
       position="163.52865,329.31285"
       orientation="1,0"
       id="guide7"
       inkscape:locked="false" /><sodipodi:guide
       position="491.71373,251.49577"
       orientation="1,0"
       id="guide8"
       inkscape:locked="false" /></sodipodi:namedview><g
     inkscape:groupmode="layer"
     inkscape:label="HyByrd Solutions"
     id="g1"
     style="display:inline;fill:#000000;fill-opacity:0.988201"><text
       xml:space="preserve"
       id="text1"
       style="font-size:12.7489px;font-family:Sans;-inkscape-font-specification:'Sans, Normal';white-space:pre;shape-inside:url(#rect1);shape-padding:1.46039;display:inline;fill:#000000;fill-opacity:1;stroke:url(#radialGradient16);stroke-width:0;stroke-dasharray:none"
       x="72.934433"
       y="0"
       transform="matrix(1.403063,0,0,2.1581009,-186.4607,-431.63511)"
       inkscape:label="motto"><tspan
         x="251.4157"
         y="424.92027"
         id="tspan2"><tspan
           style="font-weight:bold;font-family:Lemonada;-inkscape-font-specification:'Lemonada Bold';text-align:center;text-anchor:middle"
           id="tspan1">Inspections for your Protection</tspan></tspan></text><text
       xml:space="preserve"
       id="text1-4"
       style="font-size:42.6667px;font-family:Sans;-inkscape-font-specification:'Sans, Normal';white-space:pre;shape-inside:url(#rect1-5);shape-padding:1.46039;display:inline;fill:#000000;fill-opacity:0.988201;stroke:#000000;stroke-opacity:1"
       x="72.934433"
       y="0"
       transform="matrix(1.2106589,0,0,1.0931884,-117.21786,-118.02154)"
       inkscape:label="hybyrd-solutions"><tspan
         x="272.73365"
         y="452.21519"
         id="tspan6"><tspan
           style="font-family:Lemonada;-inkscape-font-specification:Lemonada;text-align:center;text-anchor:middle"
           id="tspan3">HyByrd 
</tspan></tspan><tspan
         x="250.35497"
         y="510.41926"
         id="tspan8"><tspan
           style="font-family:Lemonada;-inkscape-font-specification:Lemonada;text-align:center;text-anchor:middle"
           id="tspan7">Solutions</tspan></tspan></text><image
       width="290.3974"
       height="237.16496"
       preserveAspectRatio="none"
       xlink:href="../../hs-house-logo.png"
       id="image1"
       x="185.24194"
       y="95.696442"
       inkscape:label="hs-house"
       style="display:inline;fill:#000000" /><path
       style="fill:#000000;fill-opacity:1;stroke-width:0;stroke-dasharray:none"
       d="m 205.09964,189.99404 c 1.46435,-1.21992 3.70582,-2.21804 4.98104,-2.21804 1.27523,0 1.99336,-0.32524 1.59585,-0.72275 -0.89292,-0.89292 6.16015,-7.19706 7.27867,-6.50578 0.44371,0.27423 2.18468,-0.77843 3.86883,-2.33925 1.68415,-1.56081 3.49264,-2.83784 4.01887,-2.83784 0.52623,0 5.09165,-3.06583 10.14539,-6.81295 5.05374,-3.74711 11.52724,-8.17424 14.38556,-9.83805 2.85833,-1.66382 12.72828,-8.24054 21.93323,-14.61495 9.20495,-6.37441 17.19811,-11.58984 17.76259,-11.58984 0.56448,0 1.02633,-0.5075 1.02633,-1.12778 0,-0.62028 0.50257,-1.12779 1.11682,-1.12779 0.61426,0 4.4526,-2.28376 8.52966,-5.07502 4.07707,-2.79127 7.84597,-5.07503 8.37536,-5.07503 0.52938,0 1.13168,-0.45231 1.33844,-1.00514 0.53712,-1.43611 19.05717,-13.65605 20.69658,-13.65605 0.75182,0 2.57727,0.92904 4.05656,2.06453 2.6344,2.02216 19.01694,13.18927 22.61598,15.41612 4.32266,2.67458 22.23958,15.01307 27.42397,18.88553 3.11052,2.32338 6.22773,4.22652 6.92713,4.22918 0.6994,0.003 1.87838,0.73595 2.61997,1.6295 0.74158,0.89355 2.05525,1.35336 2.91927,1.02181 1.16908,-0.44862 1.65284,-3.53275 1.89115,-12.05664 l 0.32024,-11.45381 9.84323,-0.13541 9.84324,-0.13541 0.30681,20.26789 0.30683,20.26789 4.1408,2.42319 c 2.27745,1.33276 9.29185,5.97572 15.58755,10.31768 6.29572,4.34197 12.29282,8.40199 13.3269,9.02227 8.79254,5.27412 8.70771,5.32829 -7.68012,4.90469 -13.62454,-0.35218 -15.59905,-0.66031 -18.78253,-2.93106 -1.95659,-1.39564 -3.82939,-2.53752 -4.16174,-2.53752 -0.33237,0 -9.64283,-5.96315 -20.68991,-13.25146 -11.04708,-7.2883 -20.5931,-13.43762 -21.21339,-13.66515 -0.62028,-0.22754 -6.07619,-3.78006 -12.12423,-7.89449 -6.04806,-4.11443 -11.88434,-7.98829 -12.96952,-8.60857 -1.08519,-0.62028 -4.34826,-2.77717 -7.25129,-4.79308 -2.90301,-2.01592 -5.82115,-3.6653 -6.48475,-3.6653 -0.66359,0 -1.20653,-0.5075 -1.20653,-1.12778 0,-0.62028 -0.6826,-1.12779 -1.51688,-1.12779 -0.83429,0 -2.43545,-1.015 -3.55815,-2.25557 -2.87874,-3.18097 -7.69988,-2.83074 -12.08442,0.87788 -4.29131,3.62976 -15.20059,10.779 -18.08379,11.85096 -1.08549,0.40358 -1.97362,1.2504 -1.97362,1.88182 0,0.63143 -1.64939,1.90663 -3.6653,2.83379 -5.48657,2.52339 -10.97392,5.83761 -13.66938,8.25596 -2.74543,2.46319 -14.71323,10.38868 -15.68731,10.38868 -0.35567,0 -7.91568,4.86516 -16.80002,10.81148 -22.34618,14.95637 -22.80818,15.13545 -38.92909,15.09002 l -13.31333,-0.0375 z"
       id="path13" /><path
       style="fill:#000000;fill-opacity:1;stroke-width:0;stroke-dasharray:none"
       d="m 318.61192,310.42248 c -9.68925,-8.28265 -8.99296,-6.08237 -9.41371,-29.74728 -0.20814,-11.70671 -0.7653,-21.68984 -1.23812,-22.18473 -0.47283,-0.49487 -11.46759,-0.74862 -24.43281,-0.56389 l -23.57312,0.3359 -0.30729,20.55594 c -0.29087,19.45784 -0.43175,20.62255 -2.63729,21.80291 -1.28151,0.68585 -4.18824,2.89674 -6.45942,4.91309 -8.28112,7.352 -7.92043,8.29369 -8.30105,-21.67233 -0.18672,-14.70006 -0.18867,-39.46184 -0.004,-55.02616 l 0.33515,-28.29877 4.45793,-2.5055 c 2.45186,-1.37802 4.45793,-2.98053 4.45793,-3.56112 0,-0.58059 1.015,-1.05562 2.25557,-1.05562 1.24056,0 2.25556,-0.50751 2.25556,-1.12779 0,-0.62028 0.76126,-1.12778 1.69168,-1.12778 1.92352,0 1.85983,-1.09454 1.72277,29.60432 l -0.0944,21.14595 h 24.8295 24.8295 l 0.29535,-43.06768 0.29534,-43.06768 6.20281,-3.6681 c 3.41155,-2.01746 6.81577,-4.20587 7.56495,-4.86314 0.74917,-0.65726 1.6373,-1.19502 1.97362,-1.19502 0.33632,0 0.61149,37.80895 0.61149,84.01989 0,69.5754 -0.26044,84.01989 -1.51492,84.01989 -0.8332,0 -3.4444,-1.64939 -5.80267,-3.6653 z"
       id="path14" /><path
       style="fill:#000000;fill-opacity:1;stroke-width:0;stroke-dasharray:none"
       d="m 337.9592,314.4637 c -0.95922,-0.95921 -0.79888,-41.98439 0.19278,-49.32669 0.72341,-5.35612 0.96108,-5.65 7.51374,-9.29076 3.72169,-2.06783 7.14733,-3.76574 7.61254,-3.77313 0.46522,-0.007 0.84584,10.60689 0.84584,23.58732 0,21.03784 0.20218,23.64036 1.86181,23.96541 1.02399,0.20054 12.16114,0.21794 24.74921,0.0387 21.98098,-0.31306 22.91664,-0.41806 23.62536,-2.65104 0.40588,-1.27879 0.18004,-2.88299 -0.50186,-3.56488 -1.6028,-1.60279 -1.6526,-20.70058 -0.0565,-21.68699 0.66081,-0.4084 1.07537,-3.72089 0.93892,-7.50223 -0.23256,-6.4444 -0.43919,-6.89225 -4.28467,-9.28666 -2.22218,-1.38365 -6.46404,-3.18224 -9.42635,-3.99687 -2.96232,-0.81463 -5.65666,-1.91903 -5.98743,-2.45422 -0.33076,-0.5352 -1.52252,-0.97308 -2.64835,-0.97308 -1.12583,0 -4.26777,-1.22034 -6.98209,-2.71187 -2.71433,-1.49152 -8.36078,-4.02903 -12.54767,-5.63892 -4.1869,-1.60988 -11.03819,-4.24746 -15.22508,-5.86129 -4.1869,-1.61382 -8.07189,-3.3673 -8.6333,-3.8966 -1.07054,-1.0093 -2.25592,-83.39186 -1.19991,-83.39186 0.91409,0 6.43396,3.65917 8.91808,5.91187 1.20245,1.09044 2.83398,1.98261 3.62562,1.98261 3.25504,0 3.77426,4.81044 3.77426,34.96771 0,34.22936 -0.30541,32.90873 8.21909,35.53965 4.76742,1.47136 39.01278,15.13201 45.35064,18.0906 1.86084,0.86866 5.41336,2.27485 7.89449,3.12487 l 4.51113,1.54549 0.29849,34.00238 0.29848,34.00238 h -40.99268 c -22.54598,0 -41.33102,-0.33833 -41.74454,-0.75186 z"
       id="path15" /><path
       style="fill:#000000;fill-opacity:1;stroke-width:0;stroke-dasharray:none"
       d="m 403.90017,219.072 c 0.16174,-8.61043 0.66647,-7.67115 1.21243,2.25626 0.17912,3.25687 -0.055,5.92126 -0.52017,5.92087 -0.46522,-3.9e-4 -0.77673,-3.6801 -0.69226,-8.17713 z"
       id="path16" /><path
       style="fill:#000000;fill-opacity:1;stroke-width:0;stroke-dasharray:none"
       d="m 405.46829,218.68177 c -0.424,-3.95922 -1.23859,-7.48762 -1.8102,-7.8409 -1.40176,-0.86634 -1.32854,-5.02033 0.0885,-5.02033 0.63618,0 1.12778,-3.19539 1.12778,-7.3306 0,-9.383 0.62752,-9.48908 9.86811,-1.66811 0.77535,0.65623 1.40973,0.82239 1.40973,0.36924 0,-0.45315 0.74511,0.16122 1.65581,1.36527 2.31104,3.05547 2.12639,11.78792 -0.37223,17.6027 -1.51537,3.52656 -3.36567,5.55937 -6.64818,7.30394 l -4.54842,2.41737 z"
       id="path17" /><path
       style="fill:#000000;fill-opacity:1;stroke-width:0;stroke-dasharray:none"
       d="m 242.03019,313.40317 21.93024,-15.55053"
       id="path19" /></g></svg>
